{"title":"Pacific Rim  (Action Adventure 2013)  Idris Elba, Charlie Hunnam","uid":9258708,"size":979706281,"categoryP":"video","categoryS":"movies","magnet":"?xt=urn:btih:726cb190176b31aac2c230271aaa25ac54f7ad5a&amp;dn=Pacific+Rim++%28Action+Adventure+2013%29++Idris+Elba%2C+Charlie+Hunnam&amp;tr=udp%3A%2F%2Ftracker.openbittorrent.com%3A80&amp;tr=udp%3A%2F%2Fopen.demonii.com%3A1337&amp;tr=udp%3A%2F%2Ftracker.coppersurfer.tk%3A6969&amp;tr=udp%3A%2F%2Fexodus.desync.com%3A6969","seeders":2,"leechers":1,"uploader":"BurtonW","files":1,"time":1385598230,"description":" &lt;a href=&quot;http://www.imdb.com/title/tt1663662/?ref_=fn_al_tt_1&quot; rel=&quot;nofollow&quot; target=&quot;_NEW&quot;&gt;http://www.imdb.com/title/tt1663662/?ref_=fn_al_tt_1&lt;/a&gt;\n\n\nExcellent quality film.\n\n\nNo subtitles!\n\n\nStoryline:\n\nWhen legions of monstrous creatures, known as Kaiju, started rising from the sea, a war began that would take millions of lives and consume humanity's resources for years on end. To combat the giant Kaiju, a special type of weapon was devised: massive robots, called Jaegers, which are controlled simultaneously by two pilots whose minds are locked in a neural bridge. But even the Jaegers are proving nearly defenseless in the face of the relentless Kaiju. On the verge of defeat, the forces defending mankind have no choice but to turn to two unlikely heroes - a washed up former pilot (Charlie Hunnam) and an untested trainee (Rinko Kikuchi) - who are teamed to drive a legendary but seemingly obsolete Jaeger from the past. Together, they stand as mankind's last hope against the mounting apocalypse.\n\n\nTechnical info:\n\n\nGeneral:\n\nComplete name                  : Pacific Rim  (Action Adventure 2013)  Idris Elba, Charlie Hunnam &amp; Rinko Kikuchi.mp4\nFormat                         : MPEG-4\nFormat profile                 : Base Media / Version 2\nCodec ID                       : mp42\nFile size                      : 934 MiB\nDuration                       : 2h 11mn\nOverall bit rate mode          : Variable\nOverall bit rate               : 995 Kbps\nEncoded date                   : UTC 2013-10-02 02:44:53\nTagged date                    : UTC 2013-10-02 06:20:24\n\nVideo:\n\nID                             : 1\nFormat                         : AVC\nFormat/Info                    : Advanced Video Codec\nFormat profile                 : &lt;a class=&quot;__cf_email__&quot; href=&quot;/cdn-cgi/l/email-protection&quot; data-cfemail=&quot;b5f8d4dcdbf5f9819b85&quot;&gt;[email&amp;#160;protected]&lt;/a&gt;&lt;script cf-hash='f9e31' type=&quot;text/javascript&quot;&gt;\n/* &lt;![CDATA[ */!function(){try{var t=&quot;currentScript&quot;in document?document.currentScript:function(){for(var t=document.getElementsByTagName(&quot;script&quot;),e=t.length;e--;)if(t[e].getAttribute(&quot;cf-hash&quot;))return t[e]}();if(t&amp;&amp;t.previousSibling){var e,r,n,i,c=t.previousSibling,a=c.getAttribute(&quot;data-cfemail&quot;);if(a){for(e=&quot;&quot;,r=parseInt(a.substr(0,2),16),n=2;a.length-n;n+=2)i=parseInt(a.substr(n,2),16)^r,e+=String.fromCharCode(i);e=document.createTextNode(e),c.parentNode.replaceChild(e,c)}}}catch(u){}}();/* ]]&gt; */&lt;/script&gt;\nFormat settings, CABAC         : Yes\nFormat settings, ReFrames      : 5 frames\nCodec ID                       : avc1\nCodec ID/Info                  : Advanced Video Coding\nDuration                       : 2h 11mn\nBit rate mode                  : Variable\nBit rate                       : 832 Kbps\nWidth                          : 720 pixels\nHeight                         : 480 pixels\nDisplay aspect ratio           : 3:2\nFrame rate mode                : Constant\nFrame rate                     : 24.000 fps\nStandard                       : NTSC\nColor space                    : YUV\nChroma subsampling             : 4:2:0\nBit depth                      : 8 bits\nScan type                      : Progressive\nBits/(Pixel*Frame)             : 0.100\nStream size                    : 780 MiB (83%)\nWriting library                : x264 core 130 r2273 b3065e6\nEncoding settings              : Deleted\nEncoded date                   : UTC 2013-10-02 02:44:53\nTagged date                    : UTC 2013-10-02 06:20:24\nColor primaries                : BT.709\nTransfer characteristics       : BT.709\nMatrix coefficients            : BT.709\n\nAudio:\n\nID                             : 2\nFormat                         : AAC\nFormat/Info                    : Advanced Audio Codec\nFormat profile                 : LC\nCodec ID                       : 40\nDuration                       : 2h 11mn\nBit rate mode                  : Variable\nBit rate                       : 160 Kbps\nMaximum bit rate               : 220 Kbps\nChannel(s)                     : 2 channels\nChannel positions              : Front: L R\nSampling rate                  : 48.0 KHz\nCompression mode               : Lossy\nDelay relative to video        : 83ms\nStream size                    : 150 MiB (16%)\nLanguage                       : English\nEncoded date                   : UTC 2013-10-02 02:44:53\nTagged date                    : UTC 2013-10-02 06:20:23\n\n","torrent":{"xt":"urn:btih:726cb190176b31aac2c230271aaa25ac54f7ad5a","amp;dn":"Pacific+Rim++%28Action+Adventure+2013%29++Idris+Elba%2C+Charlie+Hunnam","amp;tr":["udp%3A%2F%2Ftracker.openbittorrent.com%3A80","udp%3A%2F%2Fopen.demonii.com%3A1337","udp%3A%2F%2Ftracker.coppersurfer.tk%3A6969","udp%3A%2F%2Fexodus.desync.com%3A6969"],"infoHash":"726cb190176b31aac2c230271aaa25ac54f7ad5a","infoHashBuffer":{"type":"Buffer","data":[114,108,177,144,23,107,49,170,194,194,48,39,26,170,37,172,84,247,173,90]},"announce":[],"urlList":[]}}